<?xml version="1.0" encoding="UTF-8" standalone="no"?>
<svg
   version="1.1"
   x="0px"
   y="0px"
   viewBox="0 0 100 125"
   enable-background="new 0 0 100 100"
   xml:space="preserve"
   id="svg2031"
   sodipodi:docname="noun-player-702307.svg"
   inkscape:version="1.1.2 (b8e25be8, 2022-02-05)"
   xmlns:inkscape="http://www.inkscape.org/namespaces/inkscape"
   xmlns:sodipodi="http://sodipodi.sourceforge.net/DTD/sodipodi-0.dtd"
   xmlns="http://www.w3.org/2000/svg"
   xmlns:svg="http://www.w3.org/2000/svg"><defs
     id="defs2035" /><sodipodi:namedview
     id="namedview2033"
     pagecolor="#ffffff"
     bordercolor="#666666"
     borderopacity="1.0"
     inkscape:pageshadow="2"
     inkscape:pageopacity="0.0"
     inkscape:pagecheckerboard="0"
     showgrid="false"
     inkscape:zoom="5.736"
     inkscape:cx="49.947699"
     inkscape:cy="62.5"
     inkscape:window-width="1312"
     inkscape:window-height="939"
     inkscape:window-x="0"
     inkscape:window-y="25"
     inkscape:window-maximized="0"
     inkscape:current-layer="svg2031" /><g
     id="g95"><polygon
       fill="#FFF"
       points="92.2,50 92.2,43.5 85.7,43.5 79.2,43.5 72.7,43.5 66.2,43.5 59.7,43.5 59.7,37    59.7,30.5 53.2,30.5 53.2,24 46.8,24 46.8,30.5 40.3,30.5 40.3,37 40.3,43.5 33.8,43.5 27.3,43.5 20.8,43.5 14.3,43.5 7.8,43.5    7.8,50 1.3,50 1.3,56.5 1.3,63 1.3,69.5 1.3,76 7.8,76 14.3,76 20.8,76 27.3,76 33.8,76 40.3,76 46.8,76 53.2,76 59.7,76 66.2,76    72.7,76 79.2,76 85.7,76 92.2,76 98.7,76 98.7,69.5 98.7,63 98.7,56.5 98.7,50  "
       id="polygon93" /></g></svg>
